<svg width="38" height="28" viewBox="0 0 38 28" fill="none" xmlns="http://www.w3.org/2000/svg" xmlns:xlink="http://www.w3.org/1999/xlink">
<path d="M2.665,14.453C2.252,14.086 1.62,14.123 1.253,14.535C0.886,14.948 0.923,15.58 1.335,15.947L2.665,14.453ZM36.739,2.673C37.111,2.265 37.082,1.633 36.673,1.261C36.265,0.889 35.633,0.918 35.261,1.327L36.739,2.673ZM14.069,25.934L14.734,25.187L14.069,25.934ZM14.209,25.927L14.949,26.6L14.209,25.927ZM1.335,15.947L13.404,26.682L14.734,25.187L2.665,14.453L1.335,15.947ZM14.949,26.6L36.739,2.673L35.261,1.327L13.47,25.254L14.949,26.6ZM13.404,26.682C13.855,27.082 14.543,27.046 14.949,26.6L13.47,25.254C13.802,24.889 14.365,24.86 14.734,25.187L13.404,26.682Z" fill="#878787"/>
</svg>